# Blender 5.0.1
# www.blender.org
mtllib benthand.mtl
o Cube
v 1.016225 0.818515 -0.821519
v 1.016225 0.181485 -0.821519
v 1.035351 0.802346 0.710922
v 1.035351 0.197654 0.710922
v -1.010817 0.818515 -0.789068
v -1.010817 0.181485 -0.789068
v -0.791560 0.802346 0.997117
v -0.791560 0.197654 0.997117
v 0.716340 0.181485 -0.994591
v 0.081128 0.181485 -1.075719
v -0.500000 0.181485 -1.000000
v 0.570442 0.802346 0.806426
v 0.105532 0.802346 0.901931
v -0.359378 0.802346 0.997435
v -0.359378 0.197654 0.997435
v 0.105532 0.197654 0.901931
v 0.570442 0.197654 0.806426
v -0.500000 0.818515 -1.000000
v 0.081128 0.818515 -1.075719
v 0.716340 0.818515 -0.994591
v -1.005933 0.181485 0.018664
v 1.008900 0.818515 0.000865
v -1.005933 0.818515 0.018664
v 1.008900 0.181485 0.000865
v -0.500000 0.181485 -0.097035
v 0.044500 0.181485 -0.138568
v 0.618666 0.181485 -0.094069
v 0.618666 0.818515 -0.094069
v 0.044500 0.818515 -0.138568
v -0.500000 0.818515 -0.097035
v -1.404911 0.181485 0.392238
v -1.028356 0.197654 1.059642
v -1.028356 0.802346 1.059642
v -1.404911 0.818515 0.392238
v -0.588889 0.197654 1.688080
v -0.588889 0.802346 1.688080
v 1.164780 0.802346 1.150997
v 1.164780 0.197654 1.150997
v -0.198822 0.802346 1.560812
v 0.710246 0.197654 1.287602
v 0.710246 0.802346 1.287602
v 0.255712 0.802346 1.424207
v -0.198822 0.197654 1.560812
v 0.255712 0.197654 1.424207
v -0.824283 0.197654 1.755691
v -0.824283 0.802346 1.755691
v -1.324924 0.818515 -0.341618
v -1.324924 0.181485 -0.341617
v -1.714308 0.818515 -0.185415
v -1.714308 0.181485 -0.185415
v -1.638443 0.818515 -0.810816
v -1.638443 0.181485 -0.810816
v -1.880891 0.818515 -0.718381
v -1.880891 0.181485 -0.718381
v -0.572185 0.064736 -1.049520
v -1.043316 0.079283 -1.010206
v -1.043316 0.567329 -1.382066
v -0.572185 0.436168 -1.492133
v 0.068316 0.044057 -1.149040
v -0.491764 0.089698 -1.110739
v -0.491764 0.441757 -1.509919
v 0.068316 0.396116 -1.548220
v 0.681058 0.089982 -1.091434
v 0.150335 0.038060 -1.135007
v 0.150335 0.376424 -1.512523
v 0.681058 0.428346 -1.468951
v 1.095780 0.512914 -1.354137
v 0.966081 0.166702 -0.913579
v 0.796357 0.510839 -1.443917
v 0.772124 0.164627 -1.003359
v -0.685914 -0.323012 -1.281954
v -1.047933 -0.289140 -1.273806
v -1.047933 -0.191089 -1.681396
v -0.685914 -0.224961 -1.689544
v -0.735992 -1.118096 -1.508725
v -1.039757 -1.113728 -1.507674
v -1.039757 -1.031825 -1.848141
v -0.735992 -1.036193 -1.849192
v -0.062795 -0.385937 -1.288230
v -0.463860 -0.367485 -1.283791
v -0.463860 -0.265404 -1.708135
v -0.062795 -0.283856 -1.712573
v -0.166050 -1.357617 -1.566660
v -0.487276 -1.342839 -1.563105
v -0.487276 -1.261079 -1.902975
v -0.166050 -1.275858 -1.906530
v 0.631751 -0.323506 -1.315960
v 0.276971 -0.339842 -1.319889
v 0.276971 -0.257203 -1.663414
v 0.631751 -0.240867 -1.659484
v 0.619881 -1.118553 -1.537290
v 0.323617 -1.127053 -1.539335
v 0.323617 -1.058092 -1.826003
v 0.619881 -1.049592 -1.823959
v 1.049559 0.073862 -1.592323
v 1.014269 -0.020341 -1.174149
v 0.818083 0.052137 -1.616751
v 0.782793 -0.042066 -1.198578
v 1.019351 -0.359282 -1.655203
v 0.990002 -0.437622 -1.307444
v 0.827538 -0.329034 -1.664576
v 0.798190 -0.407375 -1.316818
v 0.950796 -0.650676 -1.697771
v 0.944886 -0.718880 -1.413185
v 0.792011 -0.640822 -1.698707
v 0.786101 -0.709027 -1.414122
vn 0.0019 0.9999 0.0153
vn -0.0000 -1.0000 -0.0000
vn -1.0000 -0.0000 0.0060
vn -0.0000 -0.9998 0.0201
vn 0.9993 -0.0000 -0.0372
vn -0.1495 -0.9458 0.2884
vn -0.9973 0.0230 0.0696
vn 0.0527 -0.6259 0.7781
vn -0.9796 -0.0726 -0.1876
vn 0.0019 -0.9999 0.0153
vn 0.0020 -0.9999 0.0150
vn 0.0008 -0.9999 0.0167
vn -0.0000 1.0000 -0.0000
vn -0.0000 0.9998 0.0201
vn 0.0008 0.9999 0.0167
vn 0.0020 0.9999 0.0150
vn 1.0000 -0.0000 0.0089
vn 0.0108 -0.9998 0.0158
vn -0.8709 -0.0000 0.4914
vn 0.0108 0.9998 0.0158
vn 0.3102 -0.0000 0.9507
vn 0.2878 -0.0000 0.9577
vn 0.2761 -0.0000 0.9611
vn -0.9596 -0.0000 0.2813
vn 0.9594 -0.0000 -0.2822
vn 0.8315 -0.0000 -0.5556
vn 0.7487 -0.0000 -0.6629
vn -0.8815 -0.0000 0.4722
vn -0.3562 -0.0000 -0.9344
vn -0.9545 -0.0000 0.2983
vn -0.0671 0.3345 -0.9400
vn 0.1386 -0.7955 0.5899
vn -0.0480 0.8646 -0.5002
vn 0.9792 -0.0816 -0.1858
vn 0.0196 -0.3340 0.9424
vn 0.9994 -0.0134 -0.0332
vn -0.9998 -0.0082 -0.0203
vn -0.0320 0.7754 -0.6306
vn 0.9963 -0.0741 -0.0433
vn 0.0391 0.7385 -0.6731
vn 0.9950 -0.0359 -0.0927
vn -0.0636 -0.5587 0.8269
vn -0.1290 -0.7586 0.6387
vn 0.2131 0.8439 -0.4924
vn -0.9697 -0.0796 -0.2310
vn 0.9917 -0.0894 0.0925
vn 0.9982 -0.0588 -0.0142
vn 0.0156 -0.5501 0.8349
vn 0.9802 -0.1733 -0.0957
vn -1.0000 0.0060 0.0045
vn -0.0148 -0.9722 -0.2339
vn -1.0000 -0.0093 -0.0022
vn -0.0024 0.1939 -0.9810
vn -0.0024 -0.2735 0.9619
vn -0.9997 0.0225 0.0054
vn 0.9736 -0.1999 -0.1102
vn -0.0260 0.2546 -0.9667
vn -0.9989 -0.0407 -0.0225
vn -0.0473 -0.9712 -0.2336
vn -0.0020 -0.2753 0.9614
vn 0.9948 -0.0989 -0.0238
vn -0.0020 0.1921 -0.9814
vn -0.9984 -0.0554 -0.0133
vn 0.0322 0.2552 -0.9664
vn -0.9718 -0.2038 -0.1190
vn -0.0121 -0.4604 0.8876
vn 0.0295 -0.9718 -0.2338
vn 0.0014 -0.2683 0.9633
vn 0.9999 -0.0140 -0.0034
vn 0.0014 0.1992 -0.9800
vn -0.9961 -0.0138 -0.0872
vn 0.9852 -0.1049 0.1355
vn -0.9973 -0.0080 -0.0732
vn 0.1748 0.4059 -0.8970
vn -0.0647 -0.3226 0.9443
vn 0.0815 0.1322 -0.9879
vn -0.0819 -0.3041 0.9491
vn 0.9947 -0.0790 0.0662
vn -0.0588 -0.9705 -0.2338
vn 0.9804 -0.1969 0.0090
vn -0.9957 0.0850 -0.0358
vn 0.0428 0.1188 -0.9920
vt 0.812500 0.612871
vt 0.875000 0.612871
vt 0.875000 0.750000
vt 0.812500 0.750000
vt 0.187500 0.750000
vt 0.250000 0.750000
vt 0.375000 0.137129
vt 0.625000 0.137129
vt 0.625000 0.250000
vt 0.375000 0.250000
vt 0.312500 0.612871
vt 0.375000 0.612871
vt 0.375000 0.750000
vt 0.312500 0.750000
vt 0.625000 0.612871
vt 0.625000 0.750000
vt 0.375000 0.500000
vt 0.312500 0.500000
vt 0.250000 0.500000
vt 0.187500 0.500000
vt 0.375000 0.375000
vt 0.625000 0.375000
vt 0.125000 0.612871
vt 0.187500 0.612871
vt 0.125000 0.750000
vt 0.250000 0.612871
vt 0.687500 0.750000
vt 0.687500 0.612871
vt 0.750000 0.612871
vt 0.750000 0.750000
vt 0.750000 0.500000
vt 0.812500 0.500000
vt 0.687500 0.500000
vt 0.625000 0.500000
vt 0.125000 0.500000
vt 0.875000 0.500000
vt 0.375000 0.000000
vt 0.625000 0.000000
vt 0.375000 0.937500
vt 0.625000 0.937500
vt 0.625000 1.000000
vt 0.375000 1.000000
vt 0.625000 0.812500
vt 0.375000 0.812500
vt 0.625000 0.875000
vt 0.375000 0.875000
vt 0.625000 0.312500
vt 0.375000 0.312500
vt 0.625000 0.437500
vt 0.375000 0.437500
s 0
usemtl Material
f 30/1/1 23/2/1 7/3/1 14/4/1
f 15/5/2 16/6/2 44/6/2 43/5/2
f 21/7/3 23/8/3 5/9/3 6/10/3
f 27/11/4 24/12/4 4/13/4 17/14/4
f 24/12/5 22/15/5 3/16/5 4/13/5
f 2/17/6 9/18/6 70/18/6 68/17/6
f 6/10/7 5/9/7 57/9/7 56/10/7
f 10/19/8 11/20/8 60/20/8 59/19/8
f 10/21/9 19/22/9 65/22/9 64/21/9
f 21/23/10 25/24/10 15/5/10 8/25/10
f 25/24/11 26/26/11 16/6/11 15/5/11
f 26/26/12 27/11/12 17/14/12 16/6/12
f 7/3/13 33/3/13 46/3/13 36/3/13
f 3/16/13 12/27/13 41/27/13 37/16/13
f 17/14/2 4/13/2 38/13/2 40/14/2
f 22/15/14 28/28/14 12/27/14 3/16/14
f 28/28/15 29/29/15 13/30/15 12/27/15
f 29/29/16 30/1/16 14/4/16 13/30/16
f 19/31/13 18/32/13 30/1/13 29/29/13
f 20/33/13 19/31/13 29/29/13 28/28/13
f 1/34/13 20/33/13 28/28/13 22/15/13
f 10/19/2 9/18/2 27/11/2 26/26/2
f 11/20/2 10/19/2 26/26/2 25/24/2
f 6/35/2 11/20/2 25/24/2 21/23/2
f 2/17/17 1/34/17 22/15/17 24/12/17
f 9/18/2 2/17/2 24/12/2 27/11/2
f 21/23/18 8/25/18 32/25/18 31/23/18
f 18/32/13 5/36/13 23/2/13 30/1/13
f 32/37/19 33/38/19 34/8/19 31/7/19
f 7/3/20 23/2/20 34/2/20 33/3/20
f 8/25/2 15/5/2 43/5/2 35/25/2
f 34/2/13 23/2/13 47/2/13 49/2/13
f 43/39/21 39/40/21 36/41/21 35/42/21
f 38/13/22 37/16/22 41/43/22 40/44/22
f 40/44/22 41/43/22 42/45/22 44/46/22
f 44/46/22 42/45/22 39/40/22 43/39/22
f 35/42/23 36/41/23 46/41/23 45/42/23
f 32/25/2 8/25/2 35/25/2 45/25/2
f 12/27/13 13/30/13 42/30/13 41/27/13
f 33/38/24 32/37/24 45/37/24 46/38/24
f 14/4/13 7/3/13 36/3/13 39/4/13
f 16/6/2 17/14/2 40/14/2 44/6/2
f 13/30/13 14/4/13 39/4/13 42/30/13
f 4/13/25 3/16/25 37/16/25 38/13/25
f 47/8/26 48/7/26 52/7/26 51/8/26
f 23/8/27 21/7/27 48/7/27 47/8/27
f 21/23/2 31/23/2 50/23/2 48/23/2
f 31/7/28 34/8/28 49/8/28 50/7/28
f 51/8/29 52/7/29 54/7/29 53/8/29
f 49/2/13 47/2/13 51/2/13 53/2/13
f 50/7/30 49/8/30 53/8/30 54/7/30
f 48/23/2 50/23/2 54/23/2 52/23/2
f 57/36/31 58/32/31 74/32/31 73/36/31
f 11/20/32 6/35/32 56/35/32 55/20/32
f 5/36/33 18/32/33 58/32/33 57/36/33
f 18/47/34 11/48/34 55/48/34 58/47/34
f 59/19/35 60/20/35 80/20/35 79/19/35
f 19/22/36 10/21/36 59/21/36 62/22/36
f 11/48/37 18/47/37 61/47/37 60/48/37
f 18/32/38 19/31/38 62/31/38 61/32/38
f 66/49/39 63/50/39 87/50/39 90/49/39
f 19/31/40 20/33/40 66/33/40 65/31/40
f 20/49/41 9/50/41 63/50/41 66/49/41
f 9/18/42 10/19/42 64/19/42 63/18/42
f 68/17/43 70/18/43 98/18/43 96/17/43
f 20/33/44 1/34/44 67/34/44 69/33/44
f 9/50/45 20/49/45 69/49/45 70/50/45
f 1/34/46 2/17/46 68/17/46 67/34/46
f 74/47/47 71/48/47 75/48/47 78/47/47
f 55/20/48 56/35/48 72/35/48 71/20/48
f 58/47/49 55/48/49 71/48/49 74/47/49
f 56/10/50 57/9/50 73/9/50 72/10/50
f 76/10/51 77/9/51 78/47/51 75/48/51
f 72/10/52 73/9/52 77/9/52 76/10/52
f 73/36/53 74/32/53 78/32/53 77/36/53
f 71/20/54 72/35/54 76/35/54 75/20/54
f 80/48/55 81/47/55 85/47/55 84/48/55
f 62/22/56 59/21/56 79/21/56 82/22/56
f 61/32/57 62/31/57 82/31/57 81/32/57
f 60/48/58 61/47/58 81/47/58 80/48/58
f 84/48/59 85/47/59 86/22/59 83/21/59
f 79/19/60 80/20/60 84/20/60 83/19/60
f 82/22/61 79/21/61 83/21/61 86/22/61
f 81/32/62 82/31/62 86/31/62 85/32/62
f 88/21/63 89/22/63 93/22/63 92/21/63
f 65/31/64 66/33/64 90/33/64 89/31/64
f 64/21/65 65/22/65 89/22/65 88/21/65
f 63/18/66 64/19/66 88/19/66 87/18/66
f 92/21/67 93/22/67 94/33/67 91/50/67
f 87/18/68 88/19/68 92/19/68 91/18/68
f 90/49/69 87/50/69 91/50/69 94/49/69
f 89/31/70 90/33/70 94/33/70 93/31/70
f 98/50/71 97/49/71 101/49/71 102/50/71
f 67/34/72 68/17/72 96/17/72 95/34/72
f 70/50/73 69/49/73 97/49/73 98/50/73
f 69/33/74 67/34/74 95/34/74 97/33/74
f 100/17/75 102/18/75 106/18/75 104/17/75
f 97/33/76 95/34/76 99/34/76 101/33/76
f 96/17/77 98/18/77 102/18/77 100/17/77
f 95/34/78 96/17/78 100/17/78 99/34/78
f 106/50/79 105/49/79 103/34/79 104/17/79
f 99/34/80 100/17/80 104/17/80 103/34/80
f 102/50/81 101/49/81 105/49/81 106/50/81
f 101/33/82 99/34/82 103/34/82 105/33/82
