# Blender 5.0.1
# www.blender.org
mtllib foot.mtl
o Cylinder
v -0.382683 0.000000 -0.923879
v -0.382683 1.353981 -0.923879
v 0.382683 0.000000 -0.923880
v 0.382683 1.353981 -0.923880
v 0.923880 0.000000 -0.922683
v 0.923880 1.353981 -0.922683
v 0.923880 0.000000 0.382683
v 0.923880 1.353981 0.382683
v 0.382683 0.000000 0.923880
v 0.382683 1.353981 0.923880
v -0.382683 0.000000 0.923880
v -0.382683 1.353981 0.923880
v -0.923880 0.000000 0.382683
v -0.923880 1.353981 0.382683
v -0.923880 0.000000 -0.922683
v -0.923880 1.353981 -0.922683
v -0.360701 0.002170 -1.984193
v 0.360701 0.002170 -1.984193
v 0.359581 0.779903 -1.984286
v -0.359581 0.779903 -1.984286
v 0.870809 0.002170 -1.982997
v 0.868105 0.779903 -1.982904
v -0.868105 0.779903 -1.982904
v -0.870809 0.002170 -1.982997
v -0.204487 0.002170 -3.380431
v 0.204487 0.002170 -3.380431
v 0.204487 0.550448 -3.380431
v -0.204487 0.550448 -3.380431
v 0.704003 0.002170 -3.114576
v 0.704003 0.550448 -3.114576
v -0.704003 0.550448 -3.114576
v -0.704003 0.002170 -3.114576
v 0.382683 2.540899 -0.923880
v -0.382683 2.540899 -0.923879
v 0.923880 2.540899 -0.622683
v 0.923880 2.540899 0.382683
v 0.382683 2.540899 0.923880
v -0.382683 2.540899 0.923880
v -0.923880 2.540899 0.382683
v -0.923880 2.540899 -0.622683
vn -0.0000 0.8794 -0.4761
vn -0.0012 0.8794 -0.4762
vn 1.0000 -0.0000 -0.0000
vn 0.7071 -0.0000 0.7071
vn -0.0000 -0.0000 1.0000
vn -0.7071 -0.0000 0.7071
vn 0.2671 0.1208 -0.9561
vn -1.0000 -0.0000 -0.0000
vn 0.0012 0.8794 -0.4762
vn -0.0000 -1.0000 -0.0000
vn -0.0000 0.9868 -0.1622
vn 0.0489 0.9816 -0.1844
vn -0.9987 0.0013 -0.0516
vn 0.9987 0.0013 -0.0516
vn -0.0000 -1.0000 -0.0020
vn -0.0000 -0.0000 -1.0000
vn 0.4698 -0.0000 -0.8828
vn -0.4698 -0.0000 -0.8828
vn 0.9894 0.0020 -0.1449
vn -0.0489 0.9816 -0.1844
vn -0.9894 0.0020 -0.1449
vn -0.0000 1.0000 -0.0000
vn -0.2671 0.1208 -0.9561
vt 0.250000 0.490000
vt 0.419706 0.419706
vt 0.080294 0.419706
vt 0.750000 0.500000
vt 0.750000 1.000000
vt 0.625000 1.000000
vt 0.625000 0.500000
vt 0.500000 1.000000
vt 0.500000 0.500000
vt 0.375000 1.000000
vt 0.375000 0.500000
vt 0.250000 1.000000
vt 0.250000 0.500000
vt 0.490000 0.250000
vt 0.125000 1.000000
vt 0.125000 0.500000
vt 0.750000 0.490000
vt 0.919706 0.419706
vt 0.990000 0.250000
vt 0.919706 0.080294
vt 0.750000 0.010000
vt 0.580294 0.080294
vt 0.510000 0.250000
vt 0.580294 0.419706
vt 1.000000 0.500000
vt 1.000000 1.000000
vt 0.875000 1.000000
vt 0.875000 0.500000
vt 0.000000 1.000000
vt 0.000000 0.500000
vt 0.010000 0.250000
vt 0.080294 0.080294
vt 0.250000 0.010000
vt 0.419706 0.080294
s 0
f 2/1/1 4/2/1 19/2/1 20/1/1
f 16/3/2 2/1/2 20/1/2 23/3/2
f 5/4/3 6/5/3 8/6/3 7/7/3
f 7/7/4 8/6/4 10/8/4 9/9/4
f 9/9/5 10/8/5 12/10/5 11/11/5
f 11/11/6 12/10/6 14/12/6 13/13/6
f 6/14/7 4/2/7 33/2/7 35/14/7
f 13/13/8 14/12/8 16/15/8 15/16/8
f 4/2/9 6/14/9 22/14/9 19/2/9
f 1/17/10 3/18/10 5/19/10 7/20/10 9/21/10 11/22/10 13/23/10 15/24/10
f 17/17/10 24/24/10 32/24/10 25/17/10
f 20/1/11 19/2/11 27/2/11 28/1/11
f 19/2/12 22/14/12 30/14/12 27/2/12
f 15/16/13 16/15/13 23/15/13 24/16/13
f 6/5/14 5/4/14 21/4/14 22/5/14
f 5/19/15 3/18/15 18/18/15 21/19/15
f 1/17/15 15/24/15 24/24/15 17/17/15
f 3/18/15 1/17/15 17/17/15 18/18/15
f 25/25/16 28/26/16 27/27/16 26/28/16
f 26/28/17 27/27/17 30/5/17 29/4/17
f 32/16/18 31/15/18 28/29/18 25/30/18
f 22/5/19 21/4/19 29/4/19 30/5/19
f 21/19/10 18/18/10 26/18/10 29/19/10
f 18/18/10 17/17/10 25/17/10 26/18/10
f 23/3/20 20/1/20 28/1/20 31/3/20
f 24/16/21 23/15/21 31/15/21 32/16/21
f 33/2/22 34/1/22 40/3/22 39/31/22 38/32/22 37/33/22 36/34/22 35/14/22
f 12/10/5 10/8/5 37/8/5 38/10/5
f 2/1/23 16/3/23 40/3/23 34/1/23
f 4/2/16 2/1/16 34/1/16 33/2/16
f 8/6/3 6/5/3 35/5/3 36/6/3
f 14/12/6 12/10/6 38/10/6 39/12/6
f 10/8/4 8/6/4 36/6/4 37/8/4
f 16/15/8 14/12/8 39/12/8 40/15/8
